# xmcd CD database file
#
# Track frame offsets:
#	225
#	13827
#	22676
#	38989
#	49649
#	62091
#	77041
#	88597
#	103666
#	117634
#	129332
#	143579
#	154911
#	165273
#	178202
#	186841
#	201697
#
# Disc length: 2824 seconds
#
# Revision: 0
# Processed by: cddbd v1.5.1PL0 Copyright (c) Steve Scherf et al.
# Submitted via: CDex 1.51
#
DISCID=e50b0511
DTITLE=Duo Komari and Navzajem - Misto cinu Stahlavicky lesy
DYEAR=1900
DGENRE=Country
TTITLE0=Stahlavicky lesy
TTITLE1=Brdske toulani
TTITLE2=Zly casy
TTITLE3=Hrncirska
TTITLE4=Ba jsi  to kamarade
TTITLE5=Deda
TTITLE6=Jakub a Jan
TTITLE7=Traper samotar
TTITLE8=Pisen pro Wabiho
TTITLE9=Tak te hledam
TTITLE10=Cekani
TTITLE11=Misto cinu
TTITLE12=Toulavy boty
TTITLE13=Sedum let
TTITLE14=Jo, v Plzni meste
TTITLE15=Na nebezskych planich
TTITLE16=Mana
EXTD=
EXTT0=
EXTT1=
EXTT2=
EXTT3=
EXTT4=
EXTT5=
EXTT6=
EXTT7=
EXTT8=
EXTT9=
EXTT10=
EXTT11=
EXTT12=
EXTT13=
EXTT14=
EXTT15=
EXTT16=
PLAYORDER=
